<?xml version="1.0" standalone="no"?>
<!DOCTYPE svg PUBLIC "-//W3C//DTD SVG 20010904//EN"
 "http://www.w3.org/TR/2001/REC-SVG-20010904/DTD/svg10.dtd">
<svg version="1.0" xmlns="http://www.w3.org/2000/svg"
 width="700.000000pt" height="700.000000pt" viewBox="0 0 700.000000 700.000000"
 preserveAspectRatio="xMidYMid meet">
<metadata>
Created by potrace 1.11, written by Peter Selinger 2001-2013
</metadata>
<g transform="translate(0.000000,700.000000) scale(0.100000,-0.100000)"
fill="#000000" stroke="none">
<path d="M4995 5774 c-111 -20 -603 -189 -668 -230 -29 -18 -76 -47 -105 -64
-77 -46 -154 -160 -168 -247 -8 -50 11 -120 36 -133 49 -26 142 9 307 118 136
90 220 133 408 210 226 92 255 99 347 84 40 -6 105 -21 143 -34 74 -23 399
-184 550 -273 200 -117 270 -139 309 -97 24 27 72 166 86 249 10 65 10 76 -8
116 -34 76 -62 90 -364 181 -407 122 -662 157 -873 120z m-780 -604 c3 -5 1
-10 -4 -10 -6 0 -11 5 -11 10 0 6 2 10 4 10 3 0 8 -4 11 -10z"/>
<path d="M1383 5680 c-184 -40 -380 -115 -683 -263 -210 -101 -249 -131 -269
-204 -16 -55 -14 -392 2 -423 18 -35 57 -55 92 -46 18 5 71 49 135 111 78 77
170 149 360 284 264 187 389 259 499 287 80 20 111 16 351 -42 192 -46 275
-75 420 -142 174 -82 278 -103 315 -62 26 29 25 113 -3 170 -43 89 -94 135
-210 191 -111 53 -111 53 -462 121 -216 41 -409 48 -547 18z"/>
<path d="M1720 4724 c-420 -34 -494 -54 -753 -207 -40 -24 -95 -51 -122 -60
-79 -27 -133 -64 -154 -106 -11 -21 -30 -102 -43 -187 -20 -128 -23 -185 -23
-409 1 -304 9 -362 90 -645 92 -321 142 -426 261 -546 166 -168 458 -252 780
-224 68 6 143 17 168 24 163 49 463 299 615 512 136 191 245 407 321 634 64
192 89 359 95 625 l2 130 64 32 c226 115 499 144 705 75 49 -17 112 -44 140
-60 41 -24 48 -33 44 -53 -15 -75 6 -402 35 -545 44 -217 190 -558 328 -766
119 -178 239 -304 426 -447 174 -133 275 -164 526 -164 368 0 637 129 772 370
55 100 89 190 148 394 83 291 89 338 90 659 0 236 -4 295 -23 413 -32 204 -43
220 -190 281 -42 18 -120 57 -172 87 -101 59 -239 121 -305 138 -172 43 -672
58 -930 27 -212 -25 -379 -84 -503 -177 l-53 -40 -112 55 c-132 65 -225 92
-363 106 -212 22 -465 -31 -688 -142 l-79 -39 -31 29 c-111 106 -304 180 -536
207 -127 14 -448 26 -530 19z m804 -367 c122 -61 134 -77 118 -160 -7 -34 -17
-141 -22 -237 -18 -349 -40 -461 -118 -600 -19 -36 -104 -169 -188 -296 -170
-258 -227 -320 -349 -380 -171 -83 -462 -85 -642 -4 -87 39 -130 75 -174 143
-64 99 -149 342 -190 546 -29 142 -37 450 -15 596 22 151 38 206 61 219 11 6
47 27 80 47 98 59 173 77 505 125 303 43 433 53 641 51 l197 -2 96 -48z m2566
23 c484 -64 579 -84 695 -153 96 -57 94 -54 115 -158 58 -280 43 -586 -41
-878 -67 -230 -134 -376 -201 -437 -102 -92 -277 -140 -473 -131 -308 15 -408
85 -658 470 -162 248 -218 351 -240 442 -22 86 -37 238 -41 410 -3 89 -11 176
-20 215 -22 89 -20 107 12 137 38 35 157 94 211 104 79 14 471 2 641 -21z"/>
<path d="M3373 4058 c-29 -14 -42 -44 -103 -238 -28 -91 -141 -439 -250 -775
-418 -1282 -519 -1602 -536 -1691 -8 -42 10 -72 53 -90 39 -17 54 -14 141 28
162 77 758 128 1277 109 110 -5 124 -3 168 18 60 30 87 63 87 110 0 78 -62
128 -190 155 -231 47 -648 41 -975 -13 -93 -16 -171 -28 -173 -26 -1 1 27 78
64 171 209 532 330 886 398 1165 83 339 206 931 206 993 0 28 -33 64 -76 82
-39 16 -61 17 -91 2z"/>
</g>
</svg>
