<?xml version="1.0" encoding="UTF-8"?>
<svg width="600mm" height="500mm" version="1.1" viewBox="0 0 600 500" xmlns="http://www.w3.org/2000/svg" xmlns:cc="http://creativecommons.org/ns#" xmlns:dc="http://purl.org/dc/elements/1.1/" xmlns:rdf="http://www.w3.org/1999/02/22-rdf-syntax-ns#">
<metadata>
<rdf:RDF>
<cc:Work rdf:about="">
<dc:format>image/svg+xml</dc:format>
<dc:type rdf:resource="http://purl.org/dc/dcmitype/StillImage"/>
<dc:title/>
</cc:Work>
</rdf:RDF>
</metadata>
<g transform="translate(0,203)" stroke-linecap="round" stroke-linejoin="round">
<rect x="37.762" y="-109.39" width="521.61" height="281.21" rx="9.4241" ry="10.995" fill="none" stroke="#00000f" stroke-width="25" style="paint-order:fill markers stroke"/>
<path d="m46.908-14.898 502.62 1.5707" fill="none" stroke="#000" stroke-width="15"/>
<rect x="55" y="-93.859" width="31.961" height="14.66" rx="10" ry="10" stroke="#00000f" stroke-width="5" style="paint-order:fill markers stroke"/>
<rect x="55" y="-72.846" width="31.961" height="14.66" rx="10" ry="10" stroke="#00000f" stroke-width="5" style="paint-order:fill markers stroke"/>
<rect x="55" y="78.822" width="31.961" height="14.66" rx="10" ry="10" stroke="#00000f" stroke-width="5" style="paint-order:fill markers stroke"/>
<rect x="55" y="99.971" width="31.961" height="14.66" rx="10" ry="10" stroke="#00000f" stroke-width="5" style="paint-order:fill markers stroke"/>
<rect x="55" y="120.83" width="31.961" height="14.66" rx="10" ry="10" stroke="#00000f" stroke-width="5" style="paint-order:fill markers stroke"/>
<rect x="55" y="141.42" width="31.961" height="14.66" rx="10" ry="10" stroke="#00000f" stroke-width="5" style="paint-order:fill markers stroke"/>
<rect x="55" y="57.756" width="31.961" height="14.66" rx="10" ry="10" stroke="#00000f" stroke-width="5" style="paint-order:fill markers stroke"/>
<path d="m71.424 167.9-0.52356-278.53" fill="none" stroke="#000" stroke-width="5"/>
<rect x="96.555" y="-93.859" width="31.961" height="14.66" rx="10" ry="10" stroke="#00000f" stroke-width="5" style="paint-order:fill markers stroke"/>
<rect x="138.13" y="-93.859" width="31.961" height="14.66" rx="10" ry="10" stroke="#00000f" stroke-width="5" style="paint-order:fill markers stroke"/>
<rect x="179.26" y="-93.859" width="31.961" height="14.66" rx="10" ry="10" stroke="#00000f" stroke-width="5" style="paint-order:fill markers stroke"/>
<rect x="220.41" y="-93.859" width="31.961" height="14.66" rx="10" ry="10" stroke="#00000f" stroke-width="5" style="paint-order:fill markers stroke"/>
<rect x="261.79" y="-93.859" width="31.961" height="14.66" rx="10" ry="10" stroke="#00000f" stroke-width="5" style="paint-order:fill markers stroke"/>
<rect x="302.36" y="-93.859" width="31.961" height="14.66" rx="10" ry="10" stroke="#00000f" stroke-width="5" style="paint-order:fill markers stroke"/>
<rect x="342.79" y="-93.859" width="31.961" height="14.66" rx="10" ry="10" stroke="#00000f" stroke-width="5" style="paint-order:fill markers stroke"/>
<rect x="384.1" y="-93.859" width="31.961" height="14.66" rx="10" ry="10" stroke="#00000f" stroke-width="5" style="paint-order:fill markers stroke"/>
<rect x="425.55" y="-93.859" width="31.961" height="14.66" rx="10" ry="10" stroke="#00000f" stroke-width="5" style="paint-order:fill markers stroke"/>
<rect x="467.4" y="-93.859" width="31.961" height="14.66" rx="10" ry="10" stroke="#00000f" stroke-width="5" style="paint-order:fill markers stroke"/>
<rect x="508.74" y="-93.859" width="31.961" height="14.66" rx="10" ry="10" stroke="#00000f" stroke-width="5" style="paint-order:fill markers stroke"/>
<rect x="508.74" y="-38.463" width="31.961" height="14.66" rx="10" ry="10" stroke="#00000f" stroke-width="5" style="paint-order:fill markers stroke"/>
<path d="m112.91 168.26-0.52356-278.53" fill="none" stroke="#000" stroke-width="5"/>
<path d="m154.24 172.97-0.52356-278.53" fill="none" stroke="#000" stroke-width="5"/>
<path d="m196.15 166.1-0.52356-278.53" fill="none" stroke="#000" stroke-width="5"/>
<path d="m236.7 168.56-0.52356-278.53" fill="none" stroke="#000" stroke-width="5"/>
<path d="m278.06 165.81-0.52356-278.53" fill="none" stroke="#000" stroke-width="5"/>
<path d="m318.83 167.9-0.52356-278.53" fill="none" stroke="#000" stroke-width="5"/>
<path d="m358.69 171.04-0.52356-278.53" fill="none" stroke="#000" stroke-width="5"/>
<path d="m400.98 166.86-0.52356-278.53" fill="none" stroke="#000" stroke-width="5"/>
<path d="m440.89 170.52-0.52356-278.53" fill="none" stroke="#000" stroke-width="5"/>
<path d="m484.02 171.57-0.52356-278.53" fill="none" stroke="#000" stroke-width="5"/>
<path d="m525.18 167.38-0.52356-278.53" fill="none" stroke="#000" stroke-width="5"/>
<rect x="467.4" y="-38.621" width="31.961" height="14.66" rx="10" ry="10" stroke="#00000f" stroke-width="5" style="paint-order:fill markers stroke"/>
<rect x="508.74" y="-2.9425" width="31.961" height="14.66" rx="10" ry="10" stroke="#00000f" stroke-width="5" style="paint-order:fill markers stroke"/>
<rect x="508.74" y="100.42" width="31.961" height="14.66" rx="10" ry="10" stroke="#00000f" stroke-width="5" style="paint-order:fill markers stroke"/>
<rect x="508.74" y="120.91" width="31.961" height="14.66" rx="10" ry="10" stroke="#00000f" stroke-width="5" style="paint-order:fill markers stroke"/>
<rect x="508.74" y="141.41" width="31.961" height="14.66" rx="10" ry="10" stroke="#00000f" stroke-width="5" style="paint-order:fill markers stroke"/>
<rect x="508.74" y="79.734" width="31.961" height="14.66" rx="10" ry="10" stroke="#00000f" stroke-width="5" style="paint-order:fill markers stroke"/>
<rect x="96.925" y="57.756" width="31.961" height="14.66" rx="10" ry="10" stroke="#00000f" stroke-width="5" style="paint-order:fill markers stroke"/>
<rect x="96.555" y="78.822" width="31.961" height="14.66" rx="10" ry="10" stroke="#00000f" stroke-width="5" style="paint-order:fill markers stroke"/>
<rect x="96.925" y="99.971" width="31.961" height="14.66" rx="10" ry="10" stroke="#00000f" stroke-width="5" style="paint-order:fill markers stroke"/>
<rect x="96.925" y="120.83" width="31.961" height="14.66" rx="10" ry="10" stroke="#00000f" stroke-width="5" style="paint-order:fill markers stroke"/>
<rect x="96.925" y="141.42" width="31.961" height="14.66" rx="10" ry="10" stroke="#00000f" stroke-width="5" style="paint-order:fill markers stroke"/>
<rect x="220.78" y="57.756" width="31.961" height="14.66" rx="10" ry="10" stroke="#00000f" stroke-width="5" style="paint-order:fill markers stroke"/>
<rect x="220.41" y="78.822" width="31.961" height="14.66" rx="10" ry="10" stroke="#00000f" stroke-width="5" style="paint-order:fill markers stroke"/>
<rect x="220.78" y="99.971" width="31.961" height="14.66" rx="10" ry="10" stroke="#00000f" stroke-width="5" style="paint-order:fill markers stroke"/>
<rect x="220.78" y="120.83" width="31.961" height="14.66" rx="10" ry="10" stroke="#00000f" stroke-width="5" style="paint-order:fill markers stroke"/>
<rect x="220.78" y="141.42" width="31.961" height="14.66" rx="10" ry="10" stroke="#00000f" stroke-width="5" style="paint-order:fill markers stroke"/>
<rect x="262.16" y="57.756" width="31.961" height="14.66" rx="10" ry="10" stroke="#00000f" stroke-width="5" style="paint-order:fill markers stroke"/>
<rect x="261.79" y="78.822" width="31.961" height="14.66" rx="10" ry="10" stroke="#00000f" stroke-width="5" style="paint-order:fill markers stroke"/>
<rect x="262.16" y="99.971" width="31.961" height="14.66" rx="10" ry="10" stroke="#00000f" stroke-width="5" style="paint-order:fill markers stroke"/>
<rect x="262.16" y="120.83" width="31.961" height="14.66" rx="10" ry="10" stroke="#00000f" stroke-width="5" style="paint-order:fill markers stroke"/>
<rect x="262.16" y="141.42" width="31.961" height="14.66" rx="10" ry="10" stroke="#00000f" stroke-width="5" style="paint-order:fill markers stroke"/>
<rect x="425.92" y="-3.1435" width="31.961" height="14.66" rx="10" ry="10" stroke="#00000f" stroke-width="5" style="paint-order:fill markers stroke"/>
<rect x="425.55" y="17.423" width="31.961" height="14.66" rx="10" ry="10" stroke="#00000f" stroke-width="5" style="paint-order:fill markers stroke"/>
<rect x="425.92" y="38.071" width="31.961" height="14.66" rx="10" ry="10" stroke="#00000f" stroke-width="5" style="paint-order:fill markers stroke"/>
<rect x="425.92" y="58.533" width="31.961" height="14.66" rx="10" ry="10" stroke="#00000f" stroke-width="5" style="paint-order:fill markers stroke"/>
<rect x="425.92" y="141.42" width="31.961" height="14.66" rx="10" ry="10" stroke="#00000f" stroke-width="5" style="paint-order:fill markers stroke"/>
<rect x="138.5" y="57.756" width="31.961" height="14.66" rx="10" ry="10" stroke="#00000f" stroke-width="5" style="paint-order:fill markers stroke"/>
<rect x="138.13" y="78.822" width="31.961" height="14.66" rx="10" ry="10" stroke="#00000f" stroke-width="5" style="paint-order:fill markers stroke"/>
<rect x="138.5" y="99.971" width="31.961" height="14.66" rx="10" ry="10" stroke="#00000f" stroke-width="5" style="paint-order:fill markers stroke"/>
<rect x="138.5" y="120.83" width="31.961" height="14.66" rx="10" ry="10" stroke="#00000f" stroke-width="5" style="paint-order:fill markers stroke"/>
<rect x="138.5" y="141.42" width="31.961" height="14.66" rx="10" ry="10" stroke="#00000f" stroke-width="5" style="paint-order:fill markers stroke"/>
<rect x="96.555" y="-72.846" width="31.961" height="14.66" rx="10" ry="10" stroke="#00000f" stroke-width="5" style="paint-order:fill markers stroke"/>
<rect x="138.13" y="-72.846" width="31.961" height="14.66" rx="10" ry="10" stroke="#00000f" stroke-width="5" style="paint-order:fill markers stroke"/>
<rect x="179.26" y="-72.846" width="31.961" height="14.66" rx="10" ry="10" stroke="#00000f" stroke-width="5" style="paint-order:fill markers stroke"/>
<rect x="220.41" y="-72.846" width="31.961" height="14.66" rx="10" ry="10" stroke="#00000f" stroke-width="5" style="paint-order:fill markers stroke"/>
<rect x="261.79" y="-72.846" width="31.961" height="14.66" rx="10" ry="10" stroke="#00000f" stroke-width="5" style="paint-order:fill markers stroke"/>
<rect x="302.36" y="-72.846" width="31.961" height="14.66" rx="10" ry="10" stroke="#00000f" stroke-width="5" style="paint-order:fill markers stroke"/>
<rect x="342.79" y="-72.846" width="31.961" height="14.66" rx="10" ry="10" stroke="#00000f" stroke-width="5" style="paint-order:fill markers stroke"/>
<rect x="384.1" y="-72.846" width="31.961" height="14.66" rx="10" ry="10" stroke="#00000f" stroke-width="5" style="paint-order:fill markers stroke"/>
<rect x="425.55" y="-72.846" width="31.961" height="14.66" rx="10" ry="10" stroke="#00000f" stroke-width="5" style="paint-order:fill markers stroke"/>
<rect x="179.63" y="57.756" width="31.961" height="14.66" rx="10" ry="10" stroke="#00000f" stroke-width="5" style="paint-order:fill markers stroke"/>
<rect x="179.26" y="78.822" width="31.961" height="14.66" rx="10" ry="10" stroke="#00000f" stroke-width="5" style="paint-order:fill markers stroke"/>
<rect x="179.63" y="99.971" width="31.961" height="14.66" rx="10" ry="10" stroke="#00000f" stroke-width="5" style="paint-order:fill markers stroke"/>
<rect x="179.63" y="120.83" width="31.961" height="14.66" rx="10" ry="10" stroke="#00000f" stroke-width="5" style="paint-order:fill markers stroke"/>
<rect x="179.63" y="141.42" width="31.961" height="14.66" rx="10" ry="10" stroke="#00000f" stroke-width="5" style="paint-order:fill markers stroke"/>
<rect x="467.77" y="57.756" width="31.961" height="14.66" rx="10" ry="10" stroke="#00000f" stroke-width="5" style="paint-order:fill markers stroke"/>
<rect x="467.4" y="78.822" width="31.961" height="14.66" rx="10" ry="10" stroke="#00000f" stroke-width="5" style="paint-order:fill markers stroke"/>
<rect x="467.77" y="99.971" width="31.961" height="14.66" rx="10" ry="10" stroke="#00000f" stroke-width="5" style="paint-order:fill markers stroke"/>
<rect x="467.77" y="120.83" width="31.961" height="14.66" rx="10" ry="10" stroke="#00000f" stroke-width="5" style="paint-order:fill markers stroke"/>
<rect x="467.77" y="141.42" width="31.961" height="14.66" rx="10" ry="10" stroke="#00000f" stroke-width="5" style="paint-order:fill markers stroke"/>
<rect x="384.47" y="-3.3435" width="31.961" height="14.66" rx="10" ry="10" stroke="#00000f" stroke-width="5" style="paint-order:fill markers stroke"/>
<rect x="384.1" y="17.323" width="31.961" height="14.66" rx="10" ry="10" stroke="#00000f" stroke-width="5" style="paint-order:fill markers stroke"/>
<rect x="384.2" y="37.986" width="31.961" height="14.66" rx="10" ry="10" stroke="#00000f" stroke-width="5" style="paint-order:fill markers stroke"/>
<rect x="384.47" y="120.83" width="31.961" height="14.66" rx="10" ry="10" stroke="#00000f" stroke-width="5" style="paint-order:fill markers stroke"/>
<rect x="384.47" y="141.42" width="31.961" height="14.66" rx="10" ry="10" stroke="#00000f" stroke-width="5" style="paint-order:fill markers stroke"/>
<rect x="343.16" y="-3.1435" width="31.961" height="14.66" rx="10" ry="10" stroke="#00000f" stroke-width="5" style="paint-order:fill markers stroke"/>
<rect x="342.79" y="17.623" width="31.961" height="14.66" rx="10" ry="10" stroke="#00000f" stroke-width="5" style="paint-order:fill markers stroke"/>
<rect x="343.16" y="99.971" width="31.961" height="14.66" rx="10" ry="10" stroke="#00000f" stroke-width="5" style="paint-order:fill markers stroke"/>
<rect x="343.16" y="120.83" width="31.961" height="14.66" rx="10" ry="10" stroke="#00000f" stroke-width="5" style="paint-order:fill markers stroke"/>
<rect x="343.16" y="141.42" width="31.961" height="14.66" rx="10" ry="10" stroke="#00000f" stroke-width="5" style="paint-order:fill markers stroke"/>
<rect x="302.73" y="-3.3435" width="31.961" height="14.66" rx="10" ry="10" stroke="#00000f" stroke-width="5" style="paint-order:fill markers stroke"/>
<rect x="302.36" y="78.822" width="31.961" height="14.66" rx="10" ry="10" stroke="#00000f" stroke-width="5" style="paint-order:fill markers stroke"/>
<rect x="302.73" y="99.971" width="31.961" height="14.66" rx="10" ry="10" stroke="#00000f" stroke-width="5" style="paint-order:fill markers stroke"/>
<rect x="302.73" y="120.83" width="31.961" height="14.66" rx="10" ry="10" stroke="#00000f" stroke-width="5" style="paint-order:fill markers stroke"/>
<rect x="302.73" y="141.42" width="31.961" height="14.66" rx="10" ry="10" stroke="#00000f" stroke-width="5" style="paint-order:fill markers stroke"/>
</g>
</svg>
