<?xml version="1.0" encoding="UTF-8"?>
<svg width="600mm" height="500mm" version="1.1" viewBox="0 0 600 500" xmlns="http://www.w3.org/2000/svg" xmlns:cc="http://creativecommons.org/ns#" xmlns:dc="http://purl.org/dc/elements/1.1/" xmlns:rdf="http://www.w3.org/1999/02/22-rdf-syntax-ns#">
<metadata>
<rdf:RDF>
<cc:Work rdf:about="">
<dc:format>image/svg+xml</dc:format>
<dc:type rdf:resource="http://purl.org/dc/dcmitype/StillImage"/>
<dc:title/>
</cc:Work>
</rdf:RDF>
</metadata>
<g transform="translate(0,203)">
<flowRoot fill="black" font-family="sans-serif" font-size="40px" letter-spacing="0px" word-spacing="0px" style="line-height:1.25" xml:space="preserve"><flowRegion><rect x="11.429" y="21.192" width="677.14" height="691.43"/></flowRegion><flowPara/></flowRoot>
<text x="21.166666" y="-161.10715" fill="#000000" font-family="sans-serif" font-size="25.4px" letter-spacing="0px" stroke-width=".26458" word-spacing="0px" style="line-height:1.25" xml:space="preserve"><tspan x="21.166666" y="-151.74338" font-size="25.4px" stroke-width=".26458"/></text>
<flowRoot fill="#000000" fill-opacity="0" font-family="sans-serif" font-size="192px" letter-spacing="0px" word-spacing="0px" style="line-height:1.25" xml:space="preserve"><flowRegion fill="#000000" fill-opacity="0" font-size="192px"><rect x="57.143" y="44.05" width="217.14" height="451.43" fill-opacity="0"/></flowRegion><flowPara/></flowRoot>
<g transform="matrix(1.1454 0 0 1.1454 -62.191 -401.37)" aria-label="T">
<path d="m177.8 214.06 5.376 28.032h9.6l-1.92-36.48h-113.66l-1.536 36.48h9.6l5.376-28.032h35.136c0.384 18.432 0.384 37.44 0.384 56.256v10.56c0 18.816 0 37.44-0.384 55.68l-22.272 2.112v6.912h61.248v-6.912l-22.08-2.112c-0.576-18.432-0.576-37.248-0.576-55.68v-10.56c0-19.2 0-38.016 0.576-56.256z" style=""/>
</g>
<path d="m571.35-160.33-389.32 1.5779" fill="none" stroke="#000" stroke-width="11.965"/>
<path d="m571.35-119.13-389.32 1.5779" fill="none" stroke="#000" stroke-width="11.965"/>
<path d="m571.05-78.552-425.32 1.4704" fill="none" stroke="#000" stroke-width="12.072"/>
<path d="m571.57-39.96-425.32 1.4704" fill="none" stroke="#000" stroke-width="12.072"/>
<path d="m571.58 2.0428-425.32 1.4704" fill="none" stroke="#000" stroke-width="12.072"/>
<path d="m570.49 47.281-519.62 1.2482" fill="none" stroke="#000" stroke-width="12.295"/>
<rect x="52.161" y="88.758" width="514.05" height="196.87" rx="0" ry="0" fill="#999" stroke="#999" stroke-linecap="round" stroke-linejoin="round" stroke-width="11.965" style="paint-order:fill markers stroke"/>
<g transform="translate(-848.66 -39.303)">
<flowRoot fill="#000000" font-family="sans-serif" font-size="40px" letter-spacing="0px" word-spacing="0px" style="line-height:1.25" xml:space="preserve"><flowRegion><rect x="11.429" y="21.192" width="677.14" height="691.43"/></flowRegion><flowPara/></flowRoot>
<text x="21.166666" y="-161.10715" fill="#000000" font-family="sans-serif" font-size="25.4px" letter-spacing="0px" stroke-width=".26458" word-spacing="0px" style="line-height:1.25" xml:space="preserve"><tspan x="21.166666" y="-138.63409" font-size="25.4px" stroke-width=".26458"/></text>
<flowRoot fill="#000000" fill-opacity="0" font-family="sans-serif" font-size="192px" letter-spacing="0px" word-spacing="0px" style="line-height:1.25" xml:space="preserve"><flowRegion fill="#000000" fill-opacity="0" font-size="192px"><rect x="57.143" y="44.05" width="217.14" height="451.43" fill-opacity="0"/></flowRegion><flowPara/></flowRoot>
<g transform="matrix(1.1454 0 0 1.1454 -62.191 -401.37)" aria-label="T">
<path d="m177.8 214.06 5.376 28.032h9.6l-1.92-36.48h-113.66l-1.536 36.48h9.6l5.376-28.032h35.136c0.384 18.432 0.384 37.44 0.384 56.256v10.56c0 18.816 0 37.44-0.384 55.68l-22.272 2.112v6.912h61.248v-6.912l-22.08-2.112c-0.576-18.432-0.576-37.248-0.576-55.68v-10.56c0-19.2 0-38.016 0.576-56.256z"/>
</g>
<path d="m571.35-160.33-389.32 1.5779" fill="none" stroke="#000" stroke-width="11.965"/>
<path d="m571.35-119.13-389.32 1.5779" fill="none" stroke="#000" stroke-width="11.965"/>
<path d="m571.05-78.552-425.32 1.4704" fill="none" stroke="#000" stroke-width="12.072"/>
<path d="m571.57-39.96-425.32 1.4704" fill="none" stroke="#000" stroke-width="12.072"/>
<path d="m571.58 2.0428-425.32 1.4704" fill="none" stroke="#000" stroke-width="12.072"/>
<path d="m570.49 47.281-519.62 1.2482" fill="none" stroke="#000" stroke-width="12.295"/>
<rect x="52.161" y="88.758" width="514.05" height="196.87" rx="0" ry="0" fill="#999" stroke="#999" stroke-linecap="round" stroke-linejoin="round" stroke-width="11.965" style="paint-order:fill markers stroke"/>
</g>
<g transform="translate(509.77 -407.46)" fill="none" stroke="#000" stroke-linecap="round" stroke-width="30">
<path d="m400.93 196.9 158.44-155.59-157.96-157.01" stroke-linejoin="round"/>
<path d="m194.24 196.9-158.44-155.59 157.96-157.01" stroke-linejoin="round"/>
<path d="m235.85 239.55 126.24-403.68"/>
</g>
</g>
</svg>
