<?xml version="1.0" encoding="UTF-8" standalone="no"?>
<!-- Generator: Adobe Illustrator 16.0.0, SVG Export Plug-In . SVG Version: 6.00 Build 0)  -->

<svg
   xmlns:dc="http://purl.org/dc/elements/1.1/"
   xmlns:cc="http://creativecommons.org/ns#"
   xmlns:rdf="http://www.w3.org/1999/02/22-rdf-syntax-ns#"
   xmlns:svg="http://www.w3.org/2000/svg"
   xmlns="http://www.w3.org/2000/svg"
   xmlns:sodipodi="http://sodipodi.sourceforge.net/DTD/sodipodi-0.dtd"
   xmlns:inkscape="http://www.inkscape.org/namespaces/inkscape"
   version="1.1"
   id="Capa_1"
   x="0px"
   y="0px"
   width="300"
   height="168"
   viewBox="-20 -50 324.97794 206.02374"
   xml:space="preserve"
   sodipodi:docname="component.svg"
   inkscape:version="0.92.4 (unknown)"><metadata
   id="metadata1021"><rdf:RDF><cc:Work
       rdf:about=""><dc:format>image/svg+xml</dc:format><dc:type
         rdf:resource="http://purl.org/dc/dcmitype/StillImage" /><dc:title></dc:title></cc:Work></rdf:RDF></metadata><defs
   id="defs1019" /><sodipodi:namedview
   pagecolor="#ffffff"
   bordercolor="#666666"
   borderopacity="1"
   objecttolerance="10"
   gridtolerance="10"
   guidetolerance="10"
   inkscape:pageopacity="0"
   inkscape:pageshadow="2"
   inkscape:window-width="1861"
   inkscape:window-height="1025"
   id="namedview1017"
   showgrid="false"
   inkscape:zoom="1.2197875"
   inkscape:cx="140.41811"
   inkscape:cy="101.32049"
   inkscape:window-x="59"
   inkscape:window-y="27"
   inkscape:window-maximized="1"
   inkscape:current-layer="Capa_1" />
<g
   id="g984"
   transform="matrix(0.43412371,0,0,0.43412463,57.332192,-49.566573)">
	<g
   id="g982">
		<path
   d="m 423.658,234.356 c -12.438,-0.003 -24.01,3.457 -33.869,9.468 -3.709,2.262 -8.354,2.345 -12.141,0.216 -3.787,-2.129 -6.121,-6.137 -6.121,-10.482 V 155.4 c 0,-12.027 -10.109,-21.7 -22.139,-21.7 H 253.64 c -4.252,0 -8.188,-2.248 -10.349,-5.909 -2.161,-3.662 -2.23,-8.196 -0.172,-11.917 5.22,-9.429 8.19,-20.296 8.19,-31.821 0,-36.233 -29.374,-65.627 -65.617,-65.627 -36.232,0 -65.601,29.404 -65.601,65.638 0,11.523 2.97,22.385 8.187,31.811 2.061,3.723 1.999,8.258 -0.163,11.923 -2.163,3.665 -6.102,5.902 -10.356,5.902 H 22.014 c -12.032,0 -22.013,9.673 -22.013,21.7 v 76.237 c 0,4.231 2.226,8.15 5.859,10.318 3.633,2.168 8.143,2.27 11.864,0.257 9.267,-5.012 19.876,-7.858 31.151,-7.855 36.239,-0.005 65.612,29.377 65.612,65.612 0,36.238 -29.373,65.616 -65.612,65.606 -11.276,0 -21.885,-2.847 -31.152,-7.857 -3.725,-2.014 -8.234,-1.92 -11.871,0.25 C 2.216,360.139 0,364.061 0,368.294 v 80.76 c 0,12.033 9.98,21.784 22.013,21.784 h 327.375 c 12.027,0 22.139,-9.751 22.139,-21.784 v -82.681 c 0,-4.342 2.344,-8.346 6.127,-10.475 3.783,-2.127 8.426,-2.053 12.135,0.207 9.857,6.011 21.432,9.47 33.867,9.47 36.24,0.01 65.607,-29.368 65.607,-65.606 0.001,-36.235 -29.367,-65.618 -65.605,-65.613 z"
   id="path980"
   inkscape:connector-curvature="0" />
	</g>
</g>
<g
   id="g986"
   transform="translate(0,-393.97626)">
</g>
<g
   id="g988"
   transform="translate(0,-393.97626)">
</g>
<g
   id="g990"
   transform="translate(0,-393.97626)">
</g>
<g
   id="g992"
   transform="translate(0,-393.97626)">
</g>
<g
   id="g994"
   transform="translate(0,-393.97626)">
</g>
<g
   id="g996"
   transform="translate(0,-393.97626)">
</g>
<g
   id="g998"
   transform="translate(0,-393.97626)">
</g>
<g
   id="g1000"
   transform="translate(0,-393.97626)">
</g>
<g
   id="g1002"
   transform="translate(0,-393.97626)">
</g>
<g
   id="g1004"
   transform="translate(0,-393.97626)">
</g>
<g
   id="g1006"
   transform="translate(0,-393.97626)">
</g>
<g
   id="g1008"
   transform="translate(0,-393.97626)">
</g>
<g
   id="g1010"
   transform="translate(0,-393.97626)">
</g>
<g
   id="g1012"
   transform="translate(0,-393.97626)">
</g>
<g
   id="g1014"
   transform="translate(0,-393.97626)">
</g>
</svg>