<?xml version="1.0" encoding="UTF-8" standalone="no"?>
<svg
   xmlns:dc="http://purl.org/dc/elements/1.1/"
   xmlns:cc="http://creativecommons.org/ns#"
   xmlns:rdf="http://www.w3.org/1999/02/22-rdf-syntax-ns#"
   xmlns:svg="http://www.w3.org/2000/svg"
   xmlns="http://www.w3.org/2000/svg"
   xmlns:sodipodi="http://sodipodi.sourceforge.net/DTD/sodipodi-0.dtd"
   xmlns:inkscape="http://www.inkscape.org/namespaces/inkscape"
   enable-background="new 0 0 50 50"
   id="Layer_1"
   version="1.1"
   viewBox="0 0 50 50"
   xml:space="preserve"
   sodipodi:docname="cpen.svg"
   inkscape:version="0.92.4 (unknown)"><metadata
     id="metadata955"><rdf:RDF><cc:Work
         rdf:about=""><dc:format>image/svg+xml</dc:format><dc:type
           rdf:resource="http://purl.org/dc/dcmitype/StillImage" /></cc:Work></rdf:RDF></metadata><defs
     id="defs953" /><sodipodi:namedview
     pagecolor="#ffffff"
     bordercolor="#666666"
     borderopacity="1"
     objecttolerance="10"
     gridtolerance="10"
     guidetolerance="10"
     inkscape:pageopacity="0"
     inkscape:pageshadow="2"
     inkscape:window-width="1861"
     inkscape:window-height="1025"
     id="namedview951"
     showgrid="false"
     inkscape:zoom="11.935962"
     inkscape:cx="8.3086667"
     inkscape:cy="23.436126"
     inkscape:window-x="59"
     inkscape:window-y="27"
     inkscape:window-maximized="1"
     inkscape:current-layer="Layer_1" /><path
     d="M40,20.2c0,0,0-0.1,0-0.1c0,0,0,0,0-0.1c0,0,0-0.1,0-0.1c0,0,0,0,0-0.1c0,0,0-0.1,0-0.1  c0,0,0,0,0-0.1c0,0,0-0.1-0.1-0.1c0,0,0,0,0-0.1c0,0,0,0-0.1-0.1c0,0,0,0-0.1,0c0,0,0,0-0.1-0.1c0,0,0,0-0.1,0c0,0,0,0,0,0  l-13.7-9.1c-0.4-0.3-1-0.3-1.4,0l-13.7,9.1c0,0,0,0,0,0c0,0,0,0-0.1,0c0,0,0,0-0.1,0.1c0,0,0,0-0.1,0c0,0,0,0-0.1,0.1c0,0,0,0,0,0.1  c0,0,0,0.1-0.1,0.1c0,0,0,0,0,0.1c0,0,0,0.1,0,0.1c0,0,0,0,0,0.1c0,0,0,0.1,0,0.1c0,0,0,0,0,0.1c0,0,0,0.1,0,0.1c0,0,0,0,0,0.1  c0,0.1,0,0.1,0,0.2v9.1c0,0.1,0,0.1,0,0.2c0,0,0,0,0,0.1c0,0,0,0.1,0,0.1c0,0,0,0,0,0.1c0,0,0,0.1,0,0.1c0,0,0,0,0,0.1  c0,0,0,0.1,0,0.1c0,0,0,0,0,0.1c0,0,0,0.1,0.1,0.1c0,0,0,0,0,0.1c0,0,0,0,0.1,0.1c0,0,0,0,0.1,0.1c0,0,0,0,0.1,0.1c0,0,0,0,0.1,0  c0,0,0,0,0,0l13.7,9.1c0.2,0.1,0.5,0.2,0.7,0.2c0.2,0,0.5-0.1,0.7-0.2l13.7-9.1c0,0,0,0,0,0c0,0,0,0,0.1,0c0,0,0.1,0,0.1-0.1  c0,0,0,0,0.1-0.1c0,0,0,0,0.1-0.1c0,0,0,0,0-0.1c0,0,0-0.1,0.1-0.1c0,0,0,0,0-0.1c0,0,0-0.1,0-0.1c0,0,0,0,0-0.1c0,0,0-0.1,0-0.1  c0,0,0,0,0-0.1c0,0,0-0.1,0-0.1c0,0,0,0,0-0.1c0,0,0-0.1,0-0.2v-9.1C40,20.4,40,20.3,40,20.2C40,20.2,40,20.2,40,20.2z M25,28  l-4.6-3l4.6-3l4.6,3L25,28z M23.7,19.7l-5.6,3.7l-4.5-3l10.1-6.7L23.7,19.7z M15.8,25l-3.2,2.2v-4.3L15.8,25z M18.1,26.5l5.6,3.7v6  l-10.1-6.7L18.1,26.5z M26.3,30.3l5.6-3.7l4.5,3l-10.1,6.7V30.3z M34.2,25l3.2-2.2v4.3L34.2,25z M31.9,23.4l-5.6-3.7v-6l10.1,6.7  L31.9,23.4z"
     fill="#232323"
     id="wtf"
     style="fill:#f7f7f7;fill-opacity:1" /><path
     d="m 25.113537,0.43780402 c -13.687912,0 -24.69999997,11.01208798 -24.69999997,24.69999998 0,13.687912 11.01208797,24.7 24.69999997,24.7 13.687912,0 24.7,-11.012088 24.7,-24.7 0,-13.687912 -11.012088,-24.69999998 -24.7,-24.69999998 z m 0,44.25416198 c -10.80625,0 -19.5541662,-8.747912 -19.5541662,-19.554162 0,-10.80625 8.7479162,-19.554167 19.5541662,-19.554167 10.80625,0 19.554162,8.747917 19.554162,19.554167 0,10.80625 -8.747912,19.554162 -19.554162,19.554162 z"
     id="path948"
     style="fill:#f7f7f7;fill-opacity:1;stroke-width:1.02916622"
     inkscape:connector-curvature="0" /></svg>