<?xml version="1.0" encoding="UTF-8" standalone="no"?>
<!-- Svg Vector Icons : http://www.onlinewebfonts.com/icon -->

<svg
   xmlns:dc="http://purl.org/dc/elements/1.1/"
   xmlns:cc="http://creativecommons.org/ns#"
   xmlns:rdf="http://www.w3.org/1999/02/22-rdf-syntax-ns#"
   xmlns:svg="http://www.w3.org/2000/svg"
   xmlns="http://www.w3.org/2000/svg"
   xmlns:sodipodi="http://sodipodi.sourceforge.net/DTD/sodipodi-0.dtd"
   xmlns:inkscape="http://www.inkscape.org/namespaces/inkscape"
   version="1.1"
   x="0px"
   y="0px"
   viewBox="0 0 1000 1000"
   enable-background="new 0 0 1000 1000"
   xml:space="preserve"
   id="svg974"
   sodipodi:docname="medium.svg"
   inkscape:version="0.92.4 (unknown)"><defs
   id="defs978" /><sodipodi:namedview
   pagecolor="#ffffff"
   bordercolor="#666666"
   borderopacity="1"
   objecttolerance="10"
   gridtolerance="10"
   guidetolerance="10"
   inkscape:pageopacity="0"
   inkscape:pageshadow="2"
   inkscape:window-width="1861"
   inkscape:window-height="1025"
   id="namedview976"
   showgrid="false"
   inkscape:zoom="0.422"
   inkscape:cx="-113.96591"
   inkscape:cy="781.37118"
   inkscape:window-x="59"
   inkscape:window-y="27"
   inkscape:window-maximized="1"
   inkscape:current-layer="svg974" />
<metadata
   id="metadata968"> Svg Vector Icons : http://www.onlinewebfonts.com/icon <rdf:RDF><cc:Work
     rdf:about=""><dc:format>image/svg+xml</dc:format><dc:type
       rdf:resource="http://purl.org/dc/dcmitype/StillImage" /></cc:Work></rdf:RDF></metadata>
<g
   id="g972"
   style="fill:#f7f7f7;fill-opacity:1"><path
     d="M500,10C229.4,10,10,229.4,10,500c0,270.6,219.4,490,490,490c270.6,0,490-219.4,490-490C990,229.4,770.6,10,500,10z M714.4,380.9h-6c0,0-17.9,0-17.9,17.9c0,17.9,0,202.5,0,202.5s0,17.9,17.9,17.9h6v47.6H571.5v-47.6h23.8V397.6h-2.4l-73,269.2h-64.3l-72.3-269.2h-2.4v221.5h23.8v47.6H285.6v-47.6h6c0,0,17.9,0,17.9-17.9c0-17.9,0-202.5,0-202.5s0-17.9-17.9-17.9h-6v-47.6h158l55.4,206.3h1.8l55.9-206.3h157.5V380.9z"
     id="path970"
     style="fill:#f7f7f7;fill-opacity:1" /></g>
</svg>