<?xml version="1.0" encoding="UTF-8"?>
<svg width="255mm" height="223mm" version="1.1" viewBox="0 0 255 223" xmlns="http://www.w3.org/2000/svg" xmlns:cc="http://creativecommons.org/ns#" xmlns:dc="http://purl.org/dc/elements/1.1/" xmlns:rdf="http://www.w3.org/1999/02/22-rdf-syntax-ns#" xmlns:xlink="http://www.w3.org/1999/xlink">
<defs>
<clipPath id="a">
<rect x="24.946" y="83.065" width="351.52" height="108.1" fill="#fff" style="paint-order:fill markers stroke"/>
</clipPath>
</defs>
<metadata>
<rdf:RDF>
<cc:Work rdf:about="">
<dc:format>image/svg+xml</dc:format>
<dc:type rdf:resource="http://purl.org/dc/dcmitype/StillImage"/>
<dc:title/>
</cc:Work>
</rdf:RDF>
</metadata>
<g transform="translate(0,32)">
<path transform="matrix(1.2319 .0019311 -.0019346 1.2341 -64.119 -5.9068)" d="m-111.12 130.52-99.579 0.1192-49.893-86.179 49.686-86.298 99.579-0.11919 49.893 86.179z" fill="#000001" stroke="#00000f" stroke-linecap="round" stroke-linejoin="round" stroke-width="5.0065" style="paint-order:fill markers stroke"/>
<path d="m87.569-254.35c13.493-10.404 27.736-15.125 48.917-14.827 2.5178 0.0355 2.7148 1.6836 2.7584 3.6608 0.0602 2.7327 0.86538 8.2474-2.534 8.0716-17.301-0.89485-30.669 0.78068-43.263 8.3367-5.5671 3.3402-12.956 8.6868-12.252 15.141 0.98977 9.0654 13.083 15.798 21.393 17.053 7.8286 1.1822 24.515 2.4514 28.12 11.981 5.7035 15.077-7.7797 34.16-20.806 43.656-10.159 7.4062-34.855 6.9384-37.379 5.0324-3.5685-2.695 0.19706-6.584-0.30939-9.5288-0.13151-0.76468-0.83768-1.1325 0.9745-1.4373 0.92999-0.15646 12.727 1.9039 15.756 2.4556 6.2327 1.1353 14.097-0.0953 19.56-3.8819 8.9879-6.2294 19.751-17.239 17.275-27.89-2.0616-8.8697-13.366-12.38-23.153-14.499-11.589-2.5097-25.82-10.786-27.831-22.557-1.368-8.0104 6.3363-15.804 12.772-20.766z" style="paint-order:fill markers stroke"/>
<path d="m109 145.64c6.672-1.0771 10.811-1.785 16.241-2.2199 5.4294-0.43511 18.031-0.58773 21.127-0.30566 3.0959 0.28195 7.275 0.57028 10.794 1.4824 1.0698 0.27705 2.2449 0.48164 3.0949 1.2012 1.8252 1.5458 2.1449 2.8168-1.4446 4.0622 0 0-0.65334 0.98124-8.6004 0.1383-7.9472-0.84256-16.182 0.0804-22.106 0.0506-5.9233-0.0268-26.08 2.5167-28.228 3.4454-2.1477 0.9287-1.1707-2.5514-5.0551 1.2418-1.7884 1.8907-0.56424-0.93133 1.1824-4.2151 0.84269-1.585-0.84789-0.47705 0.55383-1.1449 3.6802-1.7532 5.7684-2.66 12.441-3.737z" stroke="#000" stroke-linecap="round" stroke-linejoin="round" stroke-width="5.8745" style="paint-order:fill markers stroke"/>
<path d="m122.04 73.573c2.9082-8.309 7.9568-24.746 8.6082-24.969 0.65199-0.22248 2.3947 0.56318 2.7295 0.95456 0.33557 0.39138-3.3145 16.921-5.364 25.288-2.3817 9.7224-3.2074 14.848-8.0484 28.92-4.8416 14.072-20.373 50.127-20.373 50.127-1.6997 0.0795-5.1548 3.1407-5.0552 1.2419-1.9794 0.85719 13.269-40.779 17.869-54.442 4.6002-13.663 6.4648-18.065 9.6342-27.12z" stroke="#000" stroke-linecap="round" stroke-linejoin="round" stroke-width="5.8745" style="paint-order:fill markers stroke"/>
<path d="m42.919 23.529s15.377-1.8978 23.088-1.6246c9.7172 0.34432 19.936 0.35615 28.865 4.1009 4.3423 1.821 8.7754 4.5689 11.127 8.5588 1.4026 2.3801 2.7829 3.98 2.9678 6.7892 0.1535 2.324-0.77684 5.8337-0.81983 8.1025-0.10335 5.4528-1.1758 10.934-2.952 16.107-3.0781 8.9662-7.4318 17.668-13.158 25.307-4.2094 5.6157-9.4792 10.555-15.254 14.649-3.6031 2.5545-7.4497 5.3778-11.86 6.0155-11.338 1.6396-24.706 0.62134-33.801-6.1672-8.2241-6.1387-10.537-17.597-13.444-27.274-1.8658-6.2115-2.3112-12.8-2.4176-19.27-0.11004-6.6881 0.58096-13.411 1.8431-19.986 0.261-1.3597 0.25514-2.9357 1.1777-3.9882 1.7574-2.005 5.5471-2.3962 7.3578-3.3566 5.5953-2.9678 8.1442-4.9981 17.279-7.9624l1.0404 8.8837c-4.7868 0.82157-9.8693 1.4992-13.699 4.313-1.8699 1.3741-4.3751 1.3207-5.0825 3.4938-1.9976 6.1372-3.0349 14.127-2.835 20.562 0.16372 5.2731 0.85722 12.07 2.3024 17.155 1.8421 6.4824 5.1746 18.233 10.525 22.494 8.2587 6.5793 21.707 7.2077 32.169 4.4798 3.2467-0.84665 7.0493-3.2811 9.0054-4.8052 4.1727-3.2517 6.9309-7.7038 9.948-12.14 5.1331-7.5481 11.487-14.62 12.697-23.694 0.70814-5.3141 1.4082-10.67 1.1149-16.039-0.18974-3.4947 1.3413-5.7952 1.5682-9.8552 0.2191-3.9167-5.3564-6.1872-9.0024-7.8648-2.9786-1.3705-6.4825-1.2648-9.7717-1.4543-5.2199-0.30056-10.465 0.10898-15.678 0.512-7.7901 0.60202-23.261 2.8431-23.261 2.8431z" stroke="#000" stroke-linecap="round" stroke-linejoin="round" stroke-width="5.8745" style="paint-order:fill markers stroke"/>
<path d="m220.78 24.302s-15.359-2.0315-23.073-1.8253c-9.7194 0.2598-19.938 0.18281-28.9 3.8498-4.3577 1.7832-8.8147 4.4925-11.201 8.4618-1.4234 2.3678-2.8176 3.9556-3.027 6.7631-0.17331 2.3226 0.72623 5.8402 0.74952 8.1093 0.0571 5.4535 1.0807 10.944 2.8113 16.132 3.0006 8.9927 7.2787 17.732 12.938 25.42 4.1604 5.652 9.3873 10.637 15.126 14.781 3.5804 2.5856 7.4026 5.4424 11.808 6.1182 11.323 1.738 24.7 0.83605 33.853-5.8731 8.277-6.067 10.69-17.505 13.681-27.156 1.9192-6.195 2.4224-12.779 2.5854-19.248 0.16882-6.6869-0.46474-13.416-1.6694-20.002-0.24928-1.3619-0.23003-2.9378-1.143-3.9983-1.74-2.0201-5.526-2.4443-7.3284-3.4204-5.5694-3.0164-8.1004-5.0687-17.209-8.1123l-1.1173 8.8743c4.7793 0.86317 9.8558 1.5849 13.661 4.4319 1.8578 1.3903 4.3632 1.3587 5.0521 3.5379 1.9435 6.1543 2.9119 14.153 2.6562 20.586-0.2099 5.2715-0.96247 12.062-2.4519 17.134-1.8982 6.4661-5.3326 18.187-10.72 22.402-8.3156 6.5072-21.769 7.0186-32.206 4.1998-3.2391-0.87464-7.0206-3.3421-8.9632-4.8832-4.1445-3.2879-6.8636-7.7637-9.8424-12.226-5.0668-7.5924-11.36-14.719-12.49-23.803-0.6622-5.32-1.3155-10.682-0.97628-16.048 0.22084-3.493-1.2902-5.8067-1.4815-9.8685-0.18491-3.9184 5.4096-6.1404 9.0704-7.7862 2.9906-1.3445 6.4933-1.2084 9.7842-1.3692 5.2221-0.25518 10.464 0.2001 15.673 0.64829 7.7845 0.66971 23.235 3.0453 23.235 3.0453z" fill="#000005" stroke="#000" stroke-linecap="round" stroke-linejoin="round" stroke-width="5.8745" style="paint-order:fill markers stroke"/>
<path d="m528.34-172.78s12.927-1.6151 19.413-1.418c8.1744 0.24831 16.769 0.22152 24.293 3.268 3.6589 1.4815 7.3978 3.7246 9.3905 6.996 1.1888 1.9515 2.3554 3.2618 2.5214 5.5705 0.1373 1.9099-0.63196 4.7983-0.66001 6.6636-0.0678 4.4829-0.94898 8.9926-2.4239 13.251-2.5565 7.3817-6.1868 14.551-10.975 20.85-3.5201 4.6314-7.9345 8.7107-12.776 12.097-3.0212 2.1126-6.2462 4.4473-9.9536 4.9873-9.5303 1.3883-20.778 0.59904-28.452-4.9489-6.9397-5.017-8.9272-14.428-11.408-22.373-1.592-5.0994-1.9908-10.514-2.1039-15.832-0.11693-5.4976 0.43964-11.027 1.4771-16.436 0.21455-1.1186 0.47673-2.2333 0.976-3.2827 0.5737-1.2058 2.2452-3.7237 5.6418-5.4582 4.7207-2.4107 6.6981-2.5342 15.039-3.9346l0.90758 7.2991c-4.0231 0.69249-8.2956 1.2677-11.506 3.5944-1.5677 1.1362-3.6751 1.1013-4.2622 2.8902-1.6577 5.0522-2.501 11.624-2.3094 16.913 0.15703 4.3342 0.76517 9.9187 1.9993 14.094 1.5731 5.3222 4.4191 14.969 8.9345 18.454 6.9704 5.3788 18.284 5.8474 27.073 3.5675 2.7277-0.7075 5.9172-2.7223 7.5568-3.9822 3.4978-2.688 5.8013-6.3576 8.3228-10.016 4.2898-6.2232 9.6087-12.059 10.593-19.523 0.57633-4.371 1.1452-8.7762 0.87954-13.189-0.17295-2.8722 1.1065-4.7687 1.2826-8.1071 0.16977-3.2205-4.5278-5.0671-7.6008-6.4331-2.5106-1.116-5.457-1.0166-8.2244-1.1605-4.3915-0.22844-8.802 0.12715-13.185 0.47691-6.55 0.52272-19.554 2.4203-19.554 2.4203z" style="paint-order:fill markers stroke"/>
<path d="m105.06 35.865s28.365-19.384 53.545-0.41751" fill="none" stroke="#000" stroke-linecap="round" stroke-width="10.15"/>
<path d="m248.53-8.3059c-0.30067-3.5258-10.279-5.0974-15.706-6.8507-6.8083-2.1995-15.49-3.9333-20.955-4.5406-5.4649-0.60733-8.0993-0.46714-11.561-0.09107-3.4621 0.37607-5.9564 1.2373-8.8794 2.0765-2.1394 0.61429-4.2111 1.4532-6.323 2.1614-2.6525 0.88948-5.9023 1.7499-8.0438 2.429-2.1417 0.67903-2.9234 0.94994-4.757 1.7815-1.8328 0.8315-2.4485 1.9814-6.028 3.5597-1.3958 0.61545-6.5268 6.8106-4.5356 9.7933 0.17212 0.25819-0.74425 0.35702 0.91464-0.065794 3.0338-0.77336 8.9412-4.5516 11.462-6.1632 2.5207-1.6116 2.6918-1.3714 4.6014-2.5219 1.9097-1.1506 5.2309-2.3738 8.0039-3.3665 1.9663-0.70408 3.9818-1.6408 6.0184-2.329 2.7062-0.91432 5.3829-2.1724 8.2248-2.3867 3.2869-0.24794 6.6268 0.41035 9.8047 1.3035 6.4321 1.8076 12.299 5.2902 18.376 8.1032 5.5115 2.5512 15.829 9.2295 16.397 7.9556 0.56928-1.2738 3.2866-7.3223 2.9867-10.848z" stroke="#000" stroke-linecap="round" stroke-linejoin="round" stroke-width="5.8745" style="paint-order:fill markers stroke"/>
<path d="m7.223 0.62081c-0.16067-3.5353 9.5249-6.4541 14.676-8.9321 6.4622-3.1087 14.841-6.0113 20.179-7.3587 5.3374-1.3474 7.9666-1.5678 11.447-1.6673 3.4801-0.09933 6.0638 0.41379 9.07 0.84687 2.2003 0.31693 4.3627 0.86577 6.5476 1.2796 2.7442 0.51977 6.0768 0.92932 8.2876 1.3101 2.2109 0.38085 3.0207 0.54272 4.9458 1.1167 1.9251 0.574 2.6847 1.6297 6.4372 2.7057 1.4636 0.41958 7.3532 5.8597 5.7676 9.0874-0.13663 0.27945 0.78354 0.25242-0.9152 0.059458-3.1069-0.35268-9.4531-3.2913-12.16-4.5448-2.7071-1.2534-2.8456-0.99205-4.8878-1.8719-2.0423-0.8798-5.4927-1.6391-8.3699-2.2448-2.0405-0.42955-4.1598-1.083-6.2678-1.4873-2.8007-0.53707-5.617-1.4188-8.4614-1.2436-3.2899 0.20265-6.5146 1.3107-9.5484 2.6294-6.1396 2.6689-11.506 6.9141-17.159 10.538-3.764 2.4126-9.7805 6.45-11.155 7.4569-0.38242 0.28013-7.6716 8.2688-8.3252 7.0785-1.2489-2.2743 0.32365-12.502-0.10709-14.758z" stroke="#000" stroke-linecap="round" stroke-linejoin="round" stroke-width="5.8745" style="paint-order:fill markers stroke"/>
<path d="m391.12-175.82c0.94538-6.0771 0.1749-7.6325 2.2444-10.587 0.32448-0.46331 0.8742-0.90949 1.4397-0.89816 0.3297 7e-3 0.66728 0.2634 0.81771 0.55686 1.6172 3.1548-0.23566 7.0132-0.27184 10.632-0.0362 3.6188 0.028 11.223-0.19612 15.615-0.22408 4.3917-0.70421 6.7297-0.96143 10.726s9e-3 7.537-0.51906 13.246c-0.52842 5.7087-2.0493 13.945-3.0641 20.92-0.38936 2.6759-1.1605 8.0289-1.1605 8.0289s0.6231-2.5226 1.0569-3.745c1.5289-4.3087 4.2825-10.111 6.3744-15.16 3.2837-7.9247 6.2923-15.965 9.7438-23.818 3.3921-7.7178 8.2783-21.238 10.77-22.884 2.7267-1.8011 5.1812-2.7299 8.6582-2.2956 0.42255 0.0528 2.9604 0.36624 5.5988 3.5132 1.8838 2.247 2.6741 19.566 2.8246 28.632 0.10766 6.4847-0.49212 21.433 0.76579 19.451 1.7141-2.7002 2.8222-5.7404 4.232-8.6112 2.288-4.6595 4.7168-9.2527 6.8595-13.981 4.2993-9.4866 12.288-28.641 12.288-28.641 1.4856-2.4017 5.2119-8.0104 6.4977-9.0788 0 0 4.9228-4.4062 12.017 0.26816 3.3203 2.1876 3.9339 6.8223 3.6636 11.632-0.22817 4.0586-1.9078 28.999-2.9628 43.491-0.53869 7.3998-1.1523 27.672-1.1523 27.672-0.0738 0.95239-4.1598 2.2368-4.0647-0.17118 0 0 0.92075-16.434 1.0378-22.01 0.27822-13.258-7e-3 -26.522 0.10025-39.783 0.0302-3.7384-0.0187-9.3723 0.15295-11.215 0.13119-1.4083-1.4728-5.3762-4.4199-3.3577-2.0728 1.4197-3.3488 3.4621-5.1896 5.3949-1.7897 1.8791-10.481 22.016-15.577 33.072-2.608 5.6576-8.0174 16.882-8.0174 16.882-1.4812 3.1191-2.7428 5.824-5.7744 5.7747-2.6901-0.0437-5.7162-2.9363-5.9302-8.2519l-1.2904-32.058c-0.0627-1.5571 0.27735-12.139-1.0072-13.425-1.2794-1.2802-4.3519-0.69601-5.6658 2.0917 0 0-5.9364 12.902-9.0814 19.267-3.9909 8.0779-7.8709 15.377-11.142 23.773-2.0226 5.1918-5.4973 12.455-7.1206 15.908-1.0672 2.2702-3.401 6.7134-3.401 6.7134-2.0933 3.651-4.0344 2.7537-4.269-1.5207-0.0828-1.5083 0.33747-7.9614 0.52046-11.941 0.31731-6.9016 0.65555-15.057 1.0014-20.703 0.3458-5.6459 0.64529-9.3681 0.97698-13.176 0.33169-3.808 0.47449-5.6041 0.8984-10.351 0.42392-4.7472 1.1059-11.786 1.6988-15.598z" style="paint-order:fill markers stroke"/>
<path d="m608.95-171.59s-0.24957-15.456 1.1606-15.519c0.97632-0.0436 1.526 1.0548 2.2566 1.704 2.5393 2.2563 3.0492 13.815 3.0492 13.815l0.96996 50.653 0.58917 1.3667s7.6162-22.723 12.314-33.733c3.9272-9.2042 7.3871-19.519 11.711-27.434 1.3146-2.4064 4.6082-4.9672 6.5832-5.841 1.975-0.8738 3.0053-0.73631 4.1607-0.65593 1.846 0.50527 1.817 0.35919 4.5536 1.6132 2.7366 1.254 5.785 3.5172 8.7332 6.8969 0 0 1.4994 6.7469 1.8052 10.179 0.48205 5.4113 0.0356 16.298 0.0356 16.298s-0.18342 8.373-0.1882 12.922c-5e-3 4.5488 0.0906 9.5794 0.17907 14.368 0.10436 5.6435 0.41475 16.928 0.41475 16.928l-0.21566 6.4858c-1.4337 2.9889-2.9684 1.311-3.915-0.68824l-1.0575-7.6837s-0.58366-10.332-0.60995-15.503c-0.0194-3.8182 8e-3 -6.2831 0.23193-13.985 0.22342-7.7017 1.0128-13.781 0.7788-20.673-0.14527-4.2795-1.353-12.775-1.353-12.775s-3.345-6.428-5.7992-7.3412c-2.4542-0.91315-5.2696-2.2375-7.3274-1.4251-2.0578 0.81242-3.0342 3.9698-3.0342 3.9698s-7.2154 17.45-10.529 26.29c-4.9494 13.202-13.962 39.927-13.962 39.927-2.6442 5.6637-4.4865 15.839-9.2714 9.4614z" style="paint-order:fill markers stroke"/>
<path d="m280.57-335.67c5.608-0.90925 9.0866-1.5062 13.652-1.8831s15.164-0.54749 17.769-0.32664c2.6052 0.22085 6.1209 0.44275 9.0841 1.1797 0.90068 0.224 1.8899 0.38798 2.6074 0.97662 1.5411 1.2642 1.8145 2.3079-1.2 3.3442 0 0-0.54601 0.80918-7.2334 0.14514-6.6873-0.66404-13.61 0.12322-18.593 0.12075-4.9823-2e-3 -21.927 2.1619-23.73 2.9331s-0.99397-2.0931-4.2473 1.0388c-1.4974 1.5607-0.47804-0.76352 0.97894-3.4691 0.70325-1.3059-0.71477-0.38946 0.46188-0.94337 3.0889-1.4541 4.8419-2.2069 10.45-3.1162z" style="paint-order:fill markers stroke"/>
<path d="m291.27-394.97c2.4156-6.8408 6.6022-20.371 7.1494-20.556 0.54721-0.18521 2.0158 0.45441 2.2992 0.77495 0.28335 0.32054-2.7262 13.922-4.4194 20.807-1.9675 8.0008-2.6436 12.217-6.6639 23.802-4.0203 11.585-16.953 41.279-16.953 41.279-1.4291 0.0699-4.324 2.6002-4.2473 1.0388-1.6617 0.71214 11.011-33.57 14.831-44.818s5.3714-14.873 8.004-22.329z" style="paint-order:fill markers stroke"/>
<path d="m224.54-435.82s12.927-1.6151 19.413-1.418c8.1744 0.24832 16.769 0.22153 24.293 3.268 3.6589 1.4815 7.3978 3.7246 9.3905 6.996 1.1888 1.9515 2.3554 3.2618 2.5214 5.5705 0.1373 1.9099-0.63196 4.7983-0.66001 6.6636-0.0678 4.4828-0.94898 8.9926-2.4239 13.251-2.5565 7.3817-6.1868 14.551-10.975 20.85-3.5201 4.6314-7.9345 8.7107-12.776 12.097-3.0212 2.1126-6.2462 4.4473-9.9536 4.9873-9.5303 1.3883-20.778 0.59904-28.452-4.9489-6.9397-5.017-8.9272-14.428-11.408-22.373-1.592-5.0994-1.9908-10.514-2.1039-15.832-0.11693-5.4976 0.43964-11.027 1.4771-16.436 0.21454-1.1186 0.20386-2.4142 0.976-3.2827 1.4708-1.6544 4.6569-1.9896 6.1764-2.7855 4.6953-2.4597 6.8318-4.1378 14.504-6.6072l0.90758 7.2991c-4.0231 0.69249-8.2956 1.2677-11.506 3.5944-1.5677 1.1362-3.6751 1.1013-4.2622 2.8902-1.6577 5.0522-2.501 11.624-2.3094 16.913 0.15703 4.3342 0.76517 9.9187 1.9993 14.094 1.5731 5.3222 4.4191 14.969 8.9345 18.454 6.9704 5.3788 18.284 5.8474 27.073 3.5675 2.7277-0.7075 5.9172-2.7223 7.5568-3.9822 3.4978-2.688 5.8013-6.3576 8.3228-10.016 4.2898-6.2232 9.6087-12.059 10.593-19.523 0.57633-4.371 1.1452-8.7762 0.87954-13.189-0.17295-2.8722 1.1065-4.7687 1.2826-8.1071 0.16977-3.2205-4.5278-5.0671-7.6008-6.4331-2.5106-1.116-5.457-1.0166-8.2244-1.1605-4.3915-0.22844-8.802 0.12715-13.185 0.47691-6.55 0.52272-19.554 2.4203-19.554 2.4203z" style="paint-order:fill markers stroke"/>
<path d="m374.14-435.82s-12.927-1.6151-19.413-1.418c-8.1744 0.24832-16.769 0.22153-24.293 3.268-3.6589 1.4815-7.3978 3.7246-9.3905 6.996-1.1888 1.9515-2.3554 3.2618-2.5214 5.5705-0.1373 1.9099 0.63196 4.7983 0.66001 6.6636 0.0678 4.4828 0.94898 8.9926 2.4239 13.251 2.5565 7.3817 6.1868 14.551 10.975 20.85 3.5201 4.6314 7.9345 8.7107 12.776 12.097 3.0212 2.1126 6.2462 4.4473 9.9536 4.9873 9.5303 1.3883 20.778 0.59904 28.452-4.9489 6.9397-5.017 8.9272-14.428 11.408-22.373 1.592-5.0995 1.9908-10.514 2.1039-15.832 0.11693-5.4976-0.43964-11.027-1.4771-16.436-0.21455-1.1186-0.20386-2.4142-0.976-3.2827-1.4708-1.6544-4.6569-1.9896-6.1764-2.7855-4.6953-2.4597-6.8318-4.1378-14.504-6.6072l-0.90758 7.2991c4.0231 0.69249 8.2956 1.2677 11.506 3.5944 1.5677 1.1362 3.6751 1.1013 4.2622 2.8902 1.6577 5.0522 2.501 11.624 2.3094 16.913-0.15703 4.3342-0.76517 9.9187-1.9993 14.094-1.5731 5.3222-4.4191 14.969-8.9345 18.454-6.9704 5.3788-18.284 5.8474-27.073 3.5675-2.7277-0.7075-5.9172-2.7223-7.5568-3.9822-3.4978-2.688-5.8013-6.3576-8.3228-10.016-4.2898-6.2232-9.6087-12.059-10.593-19.523-0.57633-4.371-1.1452-8.7762-0.87954-13.189 0.17295-2.8722-1.1065-4.7687-1.2826-8.1071-0.16977-3.2205 4.5278-5.0671 7.6008-6.4331 2.5106-1.116 5.457-1.0166 8.2244-1.1605 4.3915-0.22844 8.802 0.12715 13.185 0.47691 6.55 0.52272 19.554 2.4203 19.554 2.4203z" style="paint-order:fill markers stroke"/>
<path d="m276.85-425.9s23.787-16.036 45.035-0.53454" fill="none" stroke="#000" stroke-linecap="round" stroke-width="5.365"/>
<path d="m395.85-452.96c-0.26525-2.8973-8.6639-4.1536-13.235-5.5755-5.7347-1.7838-13.043-3.178-17.642-3.6577-4.5987-0.47972-6.8141-0.35506-9.7246-0.0335-2.9106 0.32153-5.0051 1.0384-7.4607 1.7388-1.7973 0.51261-3.5369 1.2097-5.3104 1.7994-2.2275 0.74066-4.9578 1.4596-6.7566 2.0255-1.7988 0.56583-2.4553 0.79132-3.9944 1.4814s-2.0526 1.6376-5.0575 2.9478c-1.1718 0.51094-5.4646 5.622-3.7793 8.0668 0.14592 0.21168-0.62432 0.29615 0.76916-0.0573 2.5489-0.6466 7.5042-3.7736 9.6181-5.1074 2.114-1.3338 2.2587-1.137 3.8608-2.0896 1.6021-0.95267 4.391-1.97 6.7196-2.796 1.6515-0.58582 3.3433-1.363 5.0539-1.9361 2.2726-0.7613 4.5194-1.8051 6.9089-1.9914 2.7638-0.21557 5.5754 0.31364 8.2517 1.0365 5.4163 1.463 10.364 4.3049 15.485 6.5955 4.645 2.0775 13.347 7.5305 13.821 6.4813s2.7375-6.031 2.4722-8.9283z" style="paint-order:fill markers stroke"/>
<path d="m202.37-451.73c-0.14808-2.9056 7.9878-5.3397 12.311-7.3951 5.424-2.5786 12.461-4.9946 16.945-6.1213 4.4843-1.1267 6.695-1.3173 9.6217-1.4115 2.9267-0.0942 5.1017 0.3185 7.6318 0.66375 1.8518 0.25269 3.6726 0.69615 5.5118 1.0285 2.31 0.41746 5.1146 0.74221 6.9755 1.0474 1.8609 0.30516 2.5427 0.43532 4.164 0.90032 1.6213 0.46499 2.264 1.3301 5.4242 2.2012 1.2324 0.33969 6.2063 4.7907 4.8845 7.4497-0.11445 0.23022 0.65999 0.20467-0.76952 0.0523-2.6149-0.27879-7.9633-2.6719-10.245-3.6926-2.2817-1.0207-2.397-0.80535-4.118-1.5213-1.721-0.71597-4.6259-1.3278-7.0481-1.8154-1.7179-0.34582-3.5027-0.87542-5.2773-1.2002-2.3576-0.43149-4.7296-1.1463-7.1214-0.99208-2.7664 0.17834-5.4747 1.1007-8.0215 2.1956-5.1542 2.2159-9.6523 5.7248-14.394 8.7237-3.1571 1.9967-8.2027 5.3372-9.3552 6.1698-0.32063 0.23165-6.4223 6.8248-6.9764 5.8486-1.0588-1.8651 0.22653-10.279-0.14401-12.131z" style="paint-order:fill markers stroke"/>
</g>
</svg>
