<?xml version="1.0" encoding="UTF-8"?>
<svg width="255mm" height="223mm" version="1.1" viewBox="0 0 255 223" xmlns="http://www.w3.org/2000/svg" xmlns:cc="http://creativecommons.org/ns#" xmlns:dc="http://purl.org/dc/elements/1.1/" xmlns:rdf="http://www.w3.org/1999/02/22-rdf-syntax-ns#" xmlns:xlink="http://www.w3.org/1999/xlink">
<defs>
<clipPath id="a">
<rect x="24.946" y="83.065" width="351.52" height="108.1" fill="#fff" style="paint-order:fill markers stroke"/>
</clipPath>
</defs>
<metadata>
<rdf:RDF>
<cc:Work rdf:about="">
<dc:format>image/svg+xml</dc:format>
<dc:type rdf:resource="http://purl.org/dc/dcmitype/StillImage"/>
<dc:title/>
</cc:Work>
</rdf:RDF>
</metadata>
<g transform="translate(0,32)">
<g transform="matrix(.49805 0 0 .51538 .4 -51.336)">
<g transform="translate(1,1)">
<g>
<g>
<path d="m476.87 135.53h-9.359c-3.86-19.681-20.878-34.133-41.841-34.133h-132.27l-40.107-47.787c-1.707-2.56-4.267-3.413-6.827-3.413h-187.73c-18.773 0-34.133 15.36-34.133 34.133v52.288c-14.679 3.814-25.6 17.216-25.6 33.046v256c0 18.773 15.36 34.133 34.133 34.133h443.73c18.773 0 34.133-15.36 34.133-34.133v-256c1e-3 -18.774-15.359-34.134-34.132-34.134zm-435.2-51.2c0-9.387 7.68-17.067 17.067-17.067h183.47l40.107 47.787c1.707 2.56 4.267 3.413 6.827 3.413h136.53c11.093 0 20.48 6.827 23.893 17.067h-407.89zm452.27 341.33c0 9.387-7.68 17.067-17.067 17.067h-443.73c-9.387 0-17.067-7.68-17.067-17.067v-256c0-9.387 7.68-17.067 17.067-17.067h443.73c9.387 0 17.067 7.68 17.067 17.067v256z"/>
<path d="m161.13 186.73h-102.4c-5.12 0-8.533 3.413-8.533 8.533s3.413 8.533 8.533 8.533h102.4c5.12 0 8.533-3.413 8.533-8.533s-3.413-8.533-8.533-8.533z"/>
<path d="m161.13 220.87h-102.4c-5.12 0-8.533 3.413-8.533 8.533s3.413 8.533 8.533 8.533h102.4c5.12 0 8.533-3.413 8.533-8.533 1e-3 -5.12-3.413-8.533-8.533-8.533z"/>
</g>
</g>
</g>
</g>
<path d="m-312.57 159.74c-65.162 9.8945-65.162 9.8945-65.162 9.8945l65.162-26.895" fill="none" stroke="#fafafa" stroke-width="19.367"/>
<path d="m212.69 131.59 8.3089-21.421-11.853-7.4668c0.47542-4.0422 0.38592-8.0363-0.12798-11.641l11.682-7.5837-8.6364-21.393-13.512 3.1493c-2.397-2.9739-5.1239-5.8023-8.0391-8.144l2.8869-13.78-20.701-8.598-7.2156 12.265c-3.9061-0.492-7.5305-0.30156-11.249 0.13215l-7.4235-11.845-20.674 8.9369 3.3734 13.837c-2.874 2.4809-5.6072 5.3023-7.9646 8.5626l-13.458-3.3284-8.3089 21.421 11.853 7.4667c-0.47546 4.0421-0.29158 7.7931 0.12794 11.641l-11.776 7.8275 8.7307 21.15 13.607-3.393c2.397 2.9739 5.1239 5.8024 8.2747 8.2416l-2.8869 13.78 20.7 8.598 7.2156-12.265c3.671 0.39442 7.5305 0.30176 11.25-0.13198l7.5643 12.186 20.438-9.0343-3.2784-14.08c2.874-2.4807 5.5128-5.0587 7.8699-8.3194zm-60.988-11.764c-11.997-4.9831-17.771-18.968-12.955-31.383 4.8156-12.414 18.566-18.291 30.328-13.406 11.762 4.8855 17.77 18.969 12.955 31.383-4.8156 12.414-18.331 18.388-30.328 13.406z" stroke-width=".13414"/>
</g>
</svg>
